<svg width="24" height="25" viewBox="0 0 24 25" fill="none" xmlns="http://www.w3.org/2000/svg">
<circle cx="12" cy="12.5" r="12" fill="#FFC64F"/>
<path d="M11.9927 18.6572C11.7656 18.6572 11.5972 18.5034 11.5972 18.2544V17.3462C9.86865 17.2437 8.61621 16.416 8.26465 15.2588C8.21338 15.1123 8.19141 14.9731 8.19141 14.8413C8.19141 14.3799 8.50635 14.0649 9.01904 14.0649C9.41455 14.0649 9.69287 14.2627 9.86865 14.6729C10.1104 15.3101 10.6084 15.7788 11.5972 15.8813V12.915L11.1943 12.8198C9.31201 12.3877 8.28662 11.5381 8.28662 10.0073C8.28662 8.31543 9.6709 7.20947 11.5972 7.08496V6.16211C11.5972 5.91309 11.7656 5.75928 11.9927 5.75928C12.2197 5.75928 12.3882 5.91309 12.3882 6.16211V7.08496C14.0215 7.20947 15.2153 8.04443 15.5669 9.21631C15.6035 9.35547 15.6255 9.4873 15.6255 9.62646C15.6255 10.0586 15.3032 10.3516 14.8198 10.3516C14.4097 10.3516 14.1387 10.1392 13.9482 9.75098C13.6479 9.0625 13.1499 8.65967 12.3882 8.55713V11.4062L12.835 11.5088C14.7905 11.9629 15.8379 12.7539 15.8379 14.3359C15.8379 16.1597 14.3511 17.2144 12.3882 17.3462V18.2544C12.3882 18.5034 12.2197 18.6572 11.9927 18.6572ZM10.0518 9.86084C10.0518 10.498 10.4912 10.9375 11.5972 11.2231V8.5498C10.5864 8.66699 10.0518 9.21631 10.0518 9.86084ZM14.0801 14.519C14.0801 13.8086 13.6699 13.4131 12.3882 13.0981V15.8813C13.5527 15.7935 14.0801 15.2515 14.0801 14.519Z" fill="#361800"/>
</svg>
