<svg width="228" height="53" viewBox="0 0 228 53" fill="none" xmlns="http://www.w3.org/2000/svg">
<rect y="5" width="228" height="48" rx="24" fill="#0084C4"/>
<path d="M45.2656 36.2344C41.2812 36.2344 38.791 33.4414 38.791 28.9492C38.791 24.4863 41.3105 21.6738 45.2461 21.6738C47.834 21.6738 49.9043 22.9336 50.7832 25.0137C50.9199 25.2969 50.9883 25.5898 50.9883 25.8535C50.9883 26.4395 50.5977 26.8203 50.0117 26.8203C49.4941 26.8203 49.1523 26.5664 48.9082 26C48.2539 24.4277 46.8672 23.5879 45.2461 23.5879C42.6875 23.5879 41.0273 25.6875 41.0273 28.9492C41.0273 32.2402 42.668 34.3203 45.2559 34.3203C46.9746 34.3203 48.293 33.5879 48.9473 32.0645C49.1816 31.5469 49.4648 31.332 49.9434 31.332C50.5391 31.332 50.9492 31.7422 50.9492 32.3184C50.9492 32.6211 50.8711 32.9043 50.7148 33.2266C49.8066 35.1309 47.8828 36.2344 45.2656 36.2344ZM57.1052 36.1953C54.1658 36.1953 52.2322 34.1738 52.2322 30.8633C52.2322 27.5625 54.1755 25.541 57.1052 25.541C60.0349 25.541 61.9783 27.5625 61.9783 30.8633C61.9783 34.1738 60.0447 36.1953 57.1052 36.1953ZM57.1052 34.457C58.7654 34.457 59.8298 33.1484 59.8298 30.8633C59.8298 28.5879 58.7556 27.2793 57.1052 27.2793C55.4548 27.2793 54.3806 28.5879 54.3806 30.8633C54.3806 33.1484 55.4548 34.457 57.1052 34.457ZM64.4038 36.1855C63.7788 36.1855 63.3491 35.7656 63.3491 35.0723V26.6055C63.3491 25.9609 63.7398 25.541 64.355 25.541C64.9605 25.541 65.3804 25.9609 65.3804 26.6152V27.4258H65.4292C65.9859 26.2539 67.0601 25.5508 68.6421 25.5508C70.9077 25.5508 72.2066 26.9961 72.2066 29.3496V35.0723C72.2066 35.7656 71.7671 36.1855 71.1421 36.1855C70.5269 36.1855 70.0874 35.7656 70.0874 35.0723V29.7598C70.0874 28.2168 69.3648 27.3672 67.8999 27.3672C66.4155 27.3672 65.4585 28.4219 65.4585 30.0137V35.0723C65.4585 35.7656 65.0191 36.1855 64.4038 36.1855ZM78.3821 36.1953C75.4427 36.1953 73.5286 34.1543 73.5286 30.8828C73.5286 27.6309 75.4329 25.541 78.3626 25.541C80.345 25.541 82.0442 26.5957 82.4934 28.0312C82.552 28.1973 82.5911 28.373 82.5911 28.5195C82.5911 29.0566 82.2102 29.3887 81.6927 29.3887C81.2434 29.3887 80.9895 29.2129 80.7356 28.7441C80.2083 27.7676 79.4856 27.2988 78.4016 27.2988C76.7513 27.2988 75.677 28.6758 75.677 30.8633C75.677 33.0996 76.7708 34.4277 78.4016 34.4277C79.5442 34.4277 80.2376 33.9199 80.7356 33.0312C81.0286 32.5234 81.2532 32.3477 81.7122 32.3477C82.2298 32.3477 82.6106 32.6992 82.6106 33.2266C82.6106 33.3926 82.5716 33.5684 82.4934 33.7734C81.9563 35.1895 80.2864 36.1953 78.3821 36.1953ZM85.1924 36.1855C84.5772 36.1855 84.1377 35.7656 84.1377 35.0723V22.8359C84.1377 22.1426 84.5772 21.7227 85.1924 21.7227C85.8077 21.7227 86.2471 22.1426 86.2471 22.8359V35.0723C86.2471 35.7656 85.8077 36.1855 85.1924 36.1855ZM91.7098 36.1855C89.4734 36.1855 88.1063 34.7305 88.1063 32.377V26.6641C88.1063 25.9609 88.5359 25.541 89.1609 25.541C89.7762 25.541 90.2156 25.9609 90.2156 26.6641V31.9668C90.2156 33.5293 90.9578 34.3691 92.4129 34.3691C93.9363 34.3691 94.8543 33.3145 94.8543 31.7129V26.6641C94.8543 25.9609 95.2938 25.541 95.909 25.541C96.534 25.541 96.9637 25.9609 96.9637 26.6641V35.1113C96.9637 35.7656 96.5633 36.1855 95.9578 36.1855C95.3523 36.1855 94.9422 35.7656 94.9422 35.1211V34.2617H94.8934C94.327 35.4922 93.282 36.1855 91.7098 36.1855ZM99.9166 24.1738C99.2427 24.1738 98.6959 23.627 98.6959 22.9629C98.6959 22.2891 99.2427 21.7617 99.9166 21.7617C100.6 21.7617 101.147 22.2891 101.147 22.9629C101.147 23.627 100.6 24.1738 99.9166 24.1738ZM99.9166 36.1855C99.2818 36.1855 98.8619 35.7461 98.8619 35.0723V26.6641C98.8619 25.9805 99.2818 25.541 99.9166 25.541C100.551 25.541 100.971 25.9805 100.971 26.6641V35.0723C100.971 35.7461 100.551 36.1855 99.9166 36.1855ZM103.924 36.1855C103.289 36.1855 102.869 35.7559 102.869 35.0723V26.6055C102.869 25.9609 103.28 25.541 103.875 25.541C104.461 25.541 104.871 25.9609 104.871 26.6055V27.4844H104.92C105.203 26.332 106.151 25.5605 107.176 25.5605C107.547 25.5605 107.83 25.6484 108.006 25.8145C108.201 25.9707 108.289 26.2246 108.289 26.5566C108.289 26.8887 108.182 27.1328 107.977 27.2988C107.762 27.4844 107.45 27.5723 107.01 27.5723C105.565 27.582 104.979 28.5488 104.979 29.8281V35.0723C104.979 35.7559 104.549 36.1855 103.924 36.1855ZM115.982 36.1758C113.971 36.1758 112.555 34.9258 112.555 33.0801C112.555 31.2832 113.941 30.1797 116.373 30.043L119.195 29.877V29.0859C119.195 27.9434 118.424 27.2598 117.135 27.2598C116.119 27.2598 115.445 27.6211 114.859 28.5586C114.644 28.8711 114.371 29.0078 114 29.0078C113.473 29.0078 113.092 28.6562 113.092 28.1289C113.092 27.9141 113.15 27.6797 113.277 27.4453C113.814 26.2832 115.367 25.541 117.213 25.541C119.703 25.541 121.295 26.8594 121.295 28.9199V35.1211C121.295 35.7852 120.875 36.1855 120.279 36.1855C119.693 36.1855 119.293 35.8047 119.273 35.1797V34.3105H119.224C118.629 35.4531 117.32 36.1758 115.982 36.1758ZM116.558 34.5059C118.033 34.5059 119.195 33.4902 119.195 32.1523V31.3418L116.656 31.498C115.396 31.5859 114.683 32.1426 114.683 33.0215C114.683 33.9199 115.435 34.5059 116.558 34.5059ZM123.701 33.5391V27.3965H122.959C122.412 27.3965 122.08 27.084 122.08 26.5664C122.08 26.0391 122.412 25.7266 122.959 25.7266H123.701V24.2031C123.701 23.5293 124.121 23.0801 124.765 23.0801C125.4 23.0801 125.82 23.5293 125.82 24.2031V25.7266H127.021C127.568 25.7266 127.9 26.0488 127.9 26.5664C127.9 27.084 127.568 27.3965 127.021 27.3965H125.82V33.0703C125.82 33.8906 126.103 34.2617 126.865 34.3203L127.031 34.3301C127.636 34.3887 127.939 34.6328 127.939 35.1309C127.939 35.7656 127.451 36.0879 126.416 36.0879H126.308C124.58 36.0879 123.701 35.2383 123.701 33.5391ZM130.374 24.1738C129.701 24.1738 129.154 23.627 129.154 22.9629C129.154 22.2891 129.701 21.7617 130.374 21.7617C131.058 21.7617 131.605 22.2891 131.605 22.9629C131.605 23.627 131.058 24.1738 130.374 24.1738ZM130.374 36.1855C129.74 36.1855 129.32 35.7461 129.32 35.0723V26.6641C129.32 25.9805 129.74 25.541 130.374 25.541C131.009 25.541 131.429 25.9805 131.429 26.6641V35.0723C131.429 35.7461 131.009 36.1855 130.374 36.1855ZM137.282 36.1855C136.53 36.1855 136.12 35.873 135.827 35.1113L132.78 27.0938C132.712 26.9082 132.663 26.7031 132.663 26.5078C132.663 25.9219 133.112 25.541 133.728 25.541C134.216 25.541 134.548 25.8047 134.724 26.3711L137.273 33.9395H137.312L139.86 26.3516C140.036 25.8047 140.368 25.541 140.847 25.541C141.452 25.541 141.882 25.9414 141.882 26.498C141.882 26.6836 141.843 26.8887 141.775 27.0645L138.728 35.1113C138.454 35.8535 138.005 36.1855 137.282 36.1855ZM144.171 24.1738C143.497 24.1738 142.95 23.627 142.95 22.9629C142.95 22.2891 143.497 21.7617 144.171 21.7617C144.854 21.7617 145.401 22.2891 145.401 22.9629C145.401 23.627 144.854 24.1738 144.171 24.1738ZM144.171 36.1855C143.536 36.1855 143.116 35.7461 143.116 35.0723V26.6641C143.116 25.9805 143.536 25.541 144.171 25.541C144.806 25.541 145.225 25.9805 145.225 26.6641V35.0723C145.225 35.7461 144.806 36.1855 144.171 36.1855ZM150.981 36.1758C148.383 36.1758 146.665 34.1055 146.665 30.8633C146.665 27.6211 148.383 25.5605 150.962 25.5605C152.436 25.5605 153.608 26.3027 154.184 27.4355H154.223V22.8359C154.223 22.1426 154.663 21.7227 155.288 21.7227C155.903 21.7227 156.342 22.1426 156.342 22.8359V35.1309C156.342 35.7949 155.913 36.1855 155.298 36.1855C154.702 36.1855 154.223 35.7949 154.223 35.1309V34.1738H154.194C153.667 35.375 152.583 36.1758 150.981 36.1758ZM151.538 34.3887C153.159 34.3887 154.243 33.0117 154.243 30.8633C154.243 28.7344 153.159 27.3379 151.538 27.3379C149.868 27.3379 148.823 28.7051 148.823 30.8633C148.823 33.0312 149.868 34.3887 151.538 34.3887ZM161.258 36.1758C159.246 36.1758 157.83 34.9258 157.83 33.0801C157.83 31.2832 159.217 30.1797 161.649 30.043L164.471 29.877V29.0859C164.471 27.9434 163.7 27.2598 162.411 27.2598C161.395 27.2598 160.721 27.6211 160.135 28.5586C159.92 28.8711 159.647 29.0078 159.276 29.0078C158.748 29.0078 158.368 28.6562 158.368 28.1289C158.368 27.9141 158.426 27.6797 158.553 27.4453C159.09 26.2832 160.643 25.541 162.489 25.541C164.979 25.541 166.571 26.8594 166.571 28.9199V35.1211C166.571 35.7852 166.151 36.1855 165.555 36.1855C164.969 36.1855 164.569 35.8047 164.549 35.1797V34.3105H164.5C163.905 35.4531 162.596 36.1758 161.258 36.1758ZM161.834 34.5059C163.309 34.5059 164.471 33.4902 164.471 32.1523V31.3418L161.932 31.498C160.672 31.5859 159.959 32.1426 159.959 33.0215C159.959 33.9199 160.711 34.5059 161.834 34.5059ZM172.219 36.1758C169.621 36.1758 167.902 34.1055 167.902 30.8633C167.902 27.6211 169.621 25.5605 172.199 25.5605C173.674 25.5605 174.846 26.3027 175.422 27.4355H175.461V22.8359C175.461 22.1426 175.901 21.7227 176.526 21.7227C177.141 21.7227 177.58 22.1426 177.58 22.8359V35.1309C177.58 35.7949 177.151 36.1855 176.535 36.1855C175.94 36.1855 175.461 35.7949 175.461 35.1309V34.1738H175.432C174.904 35.375 173.82 36.1758 172.219 36.1758ZM172.776 34.3887C174.397 34.3887 175.481 33.0117 175.481 30.8633C175.481 28.7344 174.397 27.3379 172.776 27.3379C171.106 27.3379 170.061 28.7051 170.061 30.8633C170.061 33.0312 171.106 34.3887 172.776 34.3887ZM183.941 36.1953C180.846 36.1953 179.029 34.2324 179.029 30.9121C179.029 27.6504 180.885 25.541 183.795 25.541C186.529 25.541 188.414 27.5137 188.414 30.3164C188.414 31 188.023 31.3906 187.369 31.3906H181.158V31.4395C181.158 33.3145 182.213 34.4863 183.893 34.4863C185.045 34.4863 185.768 34.0859 186.549 33.0215C186.773 32.7578 186.988 32.6504 187.291 32.6504C187.799 32.6504 188.17 32.9824 188.17 33.5098C188.17 33.6758 188.111 33.8711 188.023 34.0762C187.35 35.4238 185.855 36.1953 183.941 36.1953ZM181.168 29.916H186.305C186.256 28.3047 185.25 27.2402 183.785 27.2402C182.33 27.2402 181.275 28.3145 181.168 29.916Z" fill="black"/>
<rect width="228" height="48" rx="24" fill="#01ACFF"/>
<path d="M45.2656 31.2344C41.2812 31.2344 38.791 28.4414 38.791 23.9492C38.791 19.4863 41.3105 16.6738 45.2461 16.6738C47.834 16.6738 49.9043 17.9336 50.7832 20.0137C50.9199 20.2969 50.9883 20.5898 50.9883 20.8535C50.9883 21.4395 50.5977 21.8203 50.0117 21.8203C49.4941 21.8203 49.1523 21.5664 48.9082 21C48.2539 19.4277 46.8672 18.5879 45.2461 18.5879C42.6875 18.5879 41.0273 20.6875 41.0273 23.9492C41.0273 27.2402 42.668 29.3203 45.2559 29.3203C46.9746 29.3203 48.293 28.5879 48.9473 27.0645C49.1816 26.5469 49.4648 26.332 49.9434 26.332C50.5391 26.332 50.9492 26.7422 50.9492 27.3184C50.9492 27.6211 50.8711 27.9043 50.7148 28.2266C49.8066 30.1309 47.8828 31.2344 45.2656 31.2344ZM57.1052 31.1953C54.1658 31.1953 52.2322 29.1738 52.2322 25.8633C52.2322 22.5625 54.1755 20.541 57.1052 20.541C60.0349 20.541 61.9783 22.5625 61.9783 25.8633C61.9783 29.1738 60.0447 31.1953 57.1052 31.1953ZM57.1052 29.457C58.7654 29.457 59.8298 28.1484 59.8298 25.8633C59.8298 23.5879 58.7556 22.2793 57.1052 22.2793C55.4548 22.2793 54.3806 23.5879 54.3806 25.8633C54.3806 28.1484 55.4548 29.457 57.1052 29.457ZM64.4038 31.1855C63.7788 31.1855 63.3491 30.7656 63.3491 30.0723V21.6055C63.3491 20.9609 63.7398 20.541 64.355 20.541C64.9605 20.541 65.3804 20.9609 65.3804 21.6152V22.4258H65.4292C65.9859 21.2539 67.0601 20.5508 68.6421 20.5508C70.9077 20.5508 72.2066 21.9961 72.2066 24.3496V30.0723C72.2066 30.7656 71.7671 31.1855 71.1421 31.1855C70.5269 31.1855 70.0874 30.7656 70.0874 30.0723V24.7598C70.0874 23.2168 69.3648 22.3672 67.8999 22.3672C66.4155 22.3672 65.4585 23.4219 65.4585 25.0137V30.0723C65.4585 30.7656 65.0191 31.1855 64.4038 31.1855ZM78.3821 31.1953C75.4427 31.1953 73.5286 29.1543 73.5286 25.8828C73.5286 22.6309 75.4329 20.541 78.3626 20.541C80.345 20.541 82.0442 21.5957 82.4934 23.0312C82.552 23.1973 82.5911 23.373 82.5911 23.5195C82.5911 24.0566 82.2102 24.3887 81.6927 24.3887C81.2434 24.3887 80.9895 24.2129 80.7356 23.7441C80.2083 22.7676 79.4856 22.2988 78.4016 22.2988C76.7513 22.2988 75.677 23.6758 75.677 25.8633C75.677 28.0996 76.7708 29.4277 78.4016 29.4277C79.5442 29.4277 80.2376 28.9199 80.7356 28.0312C81.0286 27.5234 81.2532 27.3477 81.7122 27.3477C82.2298 27.3477 82.6106 27.6992 82.6106 28.2266C82.6106 28.3926 82.5716 28.5684 82.4934 28.7734C81.9563 30.1895 80.2864 31.1953 78.3821 31.1953ZM85.1924 31.1855C84.5772 31.1855 84.1377 30.7656 84.1377 30.0723V17.8359C84.1377 17.1426 84.5772 16.7227 85.1924 16.7227C85.8077 16.7227 86.2471 17.1426 86.2471 17.8359V30.0723C86.2471 30.7656 85.8077 31.1855 85.1924 31.1855ZM91.7098 31.1855C89.4734 31.1855 88.1063 29.7305 88.1063 27.377V21.6641C88.1063 20.9609 88.5359 20.541 89.1609 20.541C89.7762 20.541 90.2156 20.9609 90.2156 21.6641V26.9668C90.2156 28.5293 90.9578 29.3691 92.4129 29.3691C93.9363 29.3691 94.8543 28.3145 94.8543 26.7129V21.6641C94.8543 20.9609 95.2938 20.541 95.909 20.541C96.534 20.541 96.9637 20.9609 96.9637 21.6641V30.1113C96.9637 30.7656 96.5633 31.1855 95.9578 31.1855C95.3523 31.1855 94.9422 30.7656 94.9422 30.1211V29.2617H94.8934C94.327 30.4922 93.282 31.1855 91.7098 31.1855ZM99.9166 19.1738C99.2427 19.1738 98.6959 18.627 98.6959 17.9629C98.6959 17.2891 99.2427 16.7617 99.9166 16.7617C100.6 16.7617 101.147 17.2891 101.147 17.9629C101.147 18.627 100.6 19.1738 99.9166 19.1738ZM99.9166 31.1855C99.2818 31.1855 98.8619 30.7461 98.8619 30.0723V21.6641C98.8619 20.9805 99.2818 20.541 99.9166 20.541C100.551 20.541 100.971 20.9805 100.971 21.6641V30.0723C100.971 30.7461 100.551 31.1855 99.9166 31.1855ZM103.924 31.1855C103.289 31.1855 102.869 30.7559 102.869 30.0723V21.6055C102.869 20.9609 103.28 20.541 103.875 20.541C104.461 20.541 104.871 20.9609 104.871 21.6055V22.4844H104.92C105.203 21.332 106.151 20.5605 107.176 20.5605C107.547 20.5605 107.83 20.6484 108.006 20.8145C108.201 20.9707 108.289 21.2246 108.289 21.5566C108.289 21.8887 108.182 22.1328 107.977 22.2988C107.762 22.4844 107.45 22.5723 107.01 22.5723C105.565 22.582 104.979 23.5488 104.979 24.8281V30.0723C104.979 30.7559 104.549 31.1855 103.924 31.1855ZM115.982 31.1758C113.971 31.1758 112.555 29.9258 112.555 28.0801C112.555 26.2832 113.941 25.1797 116.373 25.043L119.195 24.877V24.0859C119.195 22.9434 118.424 22.2598 117.135 22.2598C116.119 22.2598 115.445 22.6211 114.859 23.5586C114.644 23.8711 114.371 24.0078 114 24.0078C113.473 24.0078 113.092 23.6562 113.092 23.1289C113.092 22.9141 113.15 22.6797 113.277 22.4453C113.814 21.2832 115.367 20.541 117.213 20.541C119.703 20.541 121.295 21.8594 121.295 23.9199V30.1211C121.295 30.7852 120.875 31.1855 120.279 31.1855C119.693 31.1855 119.293 30.8047 119.273 30.1797V29.3105H119.224C118.629 30.4531 117.32 31.1758 115.982 31.1758ZM116.558 29.5059C118.033 29.5059 119.195 28.4902 119.195 27.1523V26.3418L116.656 26.498C115.396 26.5859 114.683 27.1426 114.683 28.0215C114.683 28.9199 115.435 29.5059 116.558 29.5059ZM123.701 28.5391V22.3965H122.959C122.412 22.3965 122.08 22.084 122.08 21.5664C122.08 21.0391 122.412 20.7266 122.959 20.7266H123.701V19.2031C123.701 18.5293 124.121 18.0801 124.765 18.0801C125.4 18.0801 125.82 18.5293 125.82 19.2031V20.7266H127.021C127.568 20.7266 127.9 21.0488 127.9 21.5664C127.9 22.084 127.568 22.3965 127.021 22.3965H125.82V28.0703C125.82 28.8906 126.103 29.2617 126.865 29.3203L127.031 29.3301C127.636 29.3887 127.939 29.6328 127.939 30.1309C127.939 30.7656 127.451 31.0879 126.416 31.0879H126.308C124.58 31.0879 123.701 30.2383 123.701 28.5391ZM130.374 19.1738C129.701 19.1738 129.154 18.627 129.154 17.9629C129.154 17.2891 129.701 16.7617 130.374 16.7617C131.058 16.7617 131.605 17.2891 131.605 17.9629C131.605 18.627 131.058 19.1738 130.374 19.1738ZM130.374 31.1855C129.74 31.1855 129.32 30.7461 129.32 30.0723V21.6641C129.32 20.9805 129.74 20.541 130.374 20.541C131.009 20.541 131.429 20.9805 131.429 21.6641V30.0723C131.429 30.7461 131.009 31.1855 130.374 31.1855ZM137.282 31.1855C136.53 31.1855 136.12 30.873 135.827 30.1113L132.78 22.0938C132.712 21.9082 132.663 21.7031 132.663 21.5078C132.663 20.9219 133.112 20.541 133.728 20.541C134.216 20.541 134.548 20.8047 134.724 21.3711L137.273 28.9395H137.312L139.86 21.3516C140.036 20.8047 140.368 20.541 140.847 20.541C141.452 20.541 141.882 20.9414 141.882 21.498C141.882 21.6836 141.843 21.8887 141.775 22.0645L138.728 30.1113C138.454 30.8535 138.005 31.1855 137.282 31.1855ZM144.171 19.1738C143.497 19.1738 142.95 18.627 142.95 17.9629C142.95 17.2891 143.497 16.7617 144.171 16.7617C144.854 16.7617 145.401 17.2891 145.401 17.9629C145.401 18.627 144.854 19.1738 144.171 19.1738ZM144.171 31.1855C143.536 31.1855 143.116 30.7461 143.116 30.0723V21.6641C143.116 20.9805 143.536 20.541 144.171 20.541C144.806 20.541 145.225 20.9805 145.225 21.6641V30.0723C145.225 30.7461 144.806 31.1855 144.171 31.1855ZM150.981 31.1758C148.383 31.1758 146.665 29.1055 146.665 25.8633C146.665 22.6211 148.383 20.5605 150.962 20.5605C152.436 20.5605 153.608 21.3027 154.184 22.4355H154.223V17.8359C154.223 17.1426 154.663 16.7227 155.288 16.7227C155.903 16.7227 156.342 17.1426 156.342 17.8359V30.1309C156.342 30.7949 155.913 31.1855 155.298 31.1855C154.702 31.1855 154.223 30.7949 154.223 30.1309V29.1738H154.194C153.667 30.375 152.583 31.1758 150.981 31.1758ZM151.538 29.3887C153.159 29.3887 154.243 28.0117 154.243 25.8633C154.243 23.7344 153.159 22.3379 151.538 22.3379C149.868 22.3379 148.823 23.7051 148.823 25.8633C148.823 28.0312 149.868 29.3887 151.538 29.3887ZM161.258 31.1758C159.246 31.1758 157.83 29.9258 157.83 28.0801C157.83 26.2832 159.217 25.1797 161.649 25.043L164.471 24.877V24.0859C164.471 22.9434 163.7 22.2598 162.411 22.2598C161.395 22.2598 160.721 22.6211 160.135 23.5586C159.92 23.8711 159.647 24.0078 159.276 24.0078C158.748 24.0078 158.368 23.6562 158.368 23.1289C158.368 22.9141 158.426 22.6797 158.553 22.4453C159.09 21.2832 160.643 20.541 162.489 20.541C164.979 20.541 166.571 21.8594 166.571 23.9199V30.1211C166.571 30.7852 166.151 31.1855 165.555 31.1855C164.969 31.1855 164.569 30.8047 164.549 30.1797V29.3105H164.5C163.905 30.4531 162.596 31.1758 161.258 31.1758ZM161.834 29.5059C163.309 29.5059 164.471 28.4902 164.471 27.1523V26.3418L161.932 26.498C160.672 26.5859 159.959 27.1426 159.959 28.0215C159.959 28.9199 160.711 29.5059 161.834 29.5059ZM172.219 31.1758C169.621 31.1758 167.902 29.1055 167.902 25.8633C167.902 22.6211 169.621 20.5605 172.199 20.5605C173.674 20.5605 174.846 21.3027 175.422 22.4355H175.461V17.8359C175.461 17.1426 175.901 16.7227 176.526 16.7227C177.141 16.7227 177.58 17.1426 177.58 17.8359V30.1309C177.58 30.7949 177.151 31.1855 176.535 31.1855C175.94 31.1855 175.461 30.7949 175.461 30.1309V29.1738H175.432C174.904 30.375 173.82 31.1758 172.219 31.1758ZM172.776 29.3887C174.397 29.3887 175.481 28.0117 175.481 25.8633C175.481 23.7344 174.397 22.3379 172.776 22.3379C171.106 22.3379 170.061 23.7051 170.061 25.8633C170.061 28.0312 171.106 29.3887 172.776 29.3887ZM183.941 31.1953C180.846 31.1953 179.029 29.2324 179.029 25.9121C179.029 22.6504 180.885 20.541 183.795 20.541C186.529 20.541 188.414 22.5137 188.414 25.3164C188.414 26 188.023 26.3906 187.369 26.3906H181.158V26.4395C181.158 28.3145 182.213 29.4863 183.893 29.4863C185.045 29.4863 185.768 29.0859 186.549 28.0215C186.773 27.7578 186.988 27.6504 187.291 27.6504C187.799 27.6504 188.17 27.9824 188.17 28.5098C188.17 28.6758 188.111 28.8711 188.023 29.0762C187.35 30.4238 185.855 31.1953 183.941 31.1953ZM181.168 24.916H186.305C186.256 23.3047 185.25 22.2402 183.785 22.2402C182.33 22.2402 181.275 23.3145 181.168 24.916Z" fill="black"/>
</svg>
