<svg width="228" height="53" viewBox="0 0 228 53" fill="none" xmlns="http://www.w3.org/2000/svg">
<rect y="5" width="228" height="48" rx="24" fill="#C5595B"/>
<path d="M45.2656 36.2344C41.2812 36.2344 38.791 33.4414 38.791 28.9492C38.791 24.4863 41.3105 21.6738 45.2461 21.6738C47.834 21.6738 49.9043 22.9336 50.7832 25.0137C50.9199 25.2969 50.9883 25.5898 50.9883 25.8535C50.9883 26.4395 50.5977 26.8203 50.0117 26.8203C49.4941 26.8203 49.1523 26.5664 48.9082 26C48.2539 24.4277 46.8672 23.5879 45.2461 23.5879C42.6875 23.5879 41.0273 25.6875 41.0273 28.9492C41.0273 32.2402 42.668 34.3203 45.2559 34.3203C46.9746 34.3203 48.293 33.5879 48.9473 32.0645C49.1816 31.5469 49.4648 31.332 49.9434 31.332C50.5391 31.332 50.9492 31.7422 50.9492 32.3184C50.9492 32.6211 50.8711 32.9043 50.7148 33.2266C49.8066 35.1309 47.8828 36.2344 45.2656 36.2344ZM57.1052 36.1953C54.1658 36.1953 52.2322 34.1738 52.2322 30.8633C52.2322 27.5625 54.1755 25.541 57.1052 25.541C60.0349 25.541 61.9783 27.5625 61.9783 30.8633C61.9783 34.1738 60.0447 36.1953 57.1052 36.1953ZM57.1052 34.457C58.7654 34.457 59.8298 33.1484 59.8298 30.8633C59.8298 28.5879 58.7556 27.2793 57.1052 27.2793C55.4548 27.2793 54.3806 28.5879 54.3806 30.8633C54.3806 33.1484 55.4548 34.457 57.1052 34.457ZM64.4038 36.1855C63.7788 36.1855 63.3491 35.7656 63.3491 35.0723V26.6055C63.3491 25.9609 63.7398 25.541 64.355 25.541C64.9605 25.541 65.3804 25.9609 65.3804 26.6152V27.4258H65.4292C65.9859 26.2539 67.0601 25.5508 68.6421 25.5508C70.9077 25.5508 72.2066 26.9961 72.2066 29.3496V35.0723C72.2066 35.7656 71.7671 36.1855 71.1421 36.1855C70.5269 36.1855 70.0874 35.7656 70.0874 35.0723V29.7598C70.0874 28.2168 69.3648 27.3672 67.8999 27.3672C66.4155 27.3672 65.4585 28.4219 65.4585 30.0137V35.0723C65.4585 35.7656 65.0191 36.1855 64.4038 36.1855ZM78.3821 36.1953C75.4427 36.1953 73.5286 34.1543 73.5286 30.8828C73.5286 27.6309 75.4329 25.541 78.3626 25.541C80.345 25.541 82.0442 26.5957 82.4934 28.0312C82.552 28.1973 82.5911 28.373 82.5911 28.5195C82.5911 29.0566 82.2102 29.3887 81.6927 29.3887C81.2434 29.3887 80.9895 29.2129 80.7356 28.7441C80.2083 27.7676 79.4856 27.2988 78.4016 27.2988C76.7513 27.2988 75.677 28.6758 75.677 30.8633C75.677 33.0996 76.7708 34.4277 78.4016 34.4277C79.5442 34.4277 80.2376 33.9199 80.7356 33.0312C81.0286 32.5234 81.2532 32.3477 81.7122 32.3477C82.2298 32.3477 82.6106 32.6992 82.6106 33.2266C82.6106 33.3926 82.5716 33.5684 82.4934 33.7734C81.9563 35.1895 80.2864 36.1953 78.3821 36.1953ZM85.1924 36.1855C84.5772 36.1855 84.1377 35.7656 84.1377 35.0723V22.8359C84.1377 22.1426 84.5772 21.7227 85.1924 21.7227C85.8077 21.7227 86.2471 22.1426 86.2471 22.8359V35.0723C86.2471 35.7656 85.8077 36.1855 85.1924 36.1855ZM91.7098 36.1855C89.4734 36.1855 88.1063 34.7305 88.1063 32.377V26.6641C88.1063 25.9609 88.5359 25.541 89.1609 25.541C89.7762 25.541 90.2156 25.9609 90.2156 26.6641V31.9668C90.2156 33.5293 90.9578 34.3691 92.4129 34.3691C93.9363 34.3691 94.8543 33.3145 94.8543 31.7129V26.6641C94.8543 25.9609 95.2938 25.541 95.909 25.541C96.534 25.541 96.9637 25.9609 96.9637 26.6641V35.1113C96.9637 35.7656 96.5633 36.1855 95.9578 36.1855C95.3523 36.1855 94.9422 35.7656 94.9422 35.1211V34.2617H94.8934C94.327 35.4922 93.282 36.1855 91.7098 36.1855ZM99.9166 24.1738C99.2427 24.1738 98.6959 23.627 98.6959 22.9629C98.6959 22.2891 99.2427 21.7617 99.9166 21.7617C100.6 21.7617 101.147 22.2891 101.147 22.9629C101.147 23.627 100.6 24.1738 99.9166 24.1738ZM99.9166 36.1855C99.2818 36.1855 98.8619 35.7461 98.8619 35.0723V26.6641C98.8619 25.9805 99.2818 25.541 99.9166 25.541C100.551 25.541 100.971 25.9805 100.971 26.6641V35.0723C100.971 35.7461 100.551 36.1855 99.9166 36.1855ZM103.924 36.1855C103.289 36.1855 102.869 35.7559 102.869 35.0723V26.6055C102.869 25.9609 103.28 25.541 103.875 25.541C104.461 25.541 104.871 25.9609 104.871 26.6055V27.4844H104.92C105.203 26.332 106.151 25.5605 107.176 25.5605C107.547 25.5605 107.83 25.6484 108.006 25.8145C108.201 25.9707 108.289 26.2246 108.289 26.5566C108.289 26.8887 108.182 27.1328 107.977 27.2988C107.762 27.4844 107.45 27.5723 107.01 27.5723C105.565 27.582 104.979 28.5488 104.979 29.8281V35.0723C104.979 35.7559 104.549 36.1855 103.924 36.1855ZM115.982 36.1758C113.971 36.1758 112.555 34.9258 112.555 33.0801C112.555 31.2832 113.941 30.1797 116.373 30.043L119.195 29.877V29.0859C119.195 27.9434 118.424 27.2598 117.135 27.2598C116.119 27.2598 115.445 27.6211 114.859 28.5586C114.644 28.8711 114.371 29.0078 114 29.0078C113.473 29.0078 113.092 28.6562 113.092 28.1289C113.092 27.9141 113.15 27.6797 113.277 27.4453C113.814 26.2832 115.367 25.541 117.213 25.541C119.703 25.541 121.295 26.8594 121.295 28.9199V35.1211C121.295 35.7852 120.875 36.1855 120.279 36.1855C119.693 36.1855 119.293 35.8047 119.273 35.1797V34.3105H119.224C118.629 35.4531 117.32 36.1758 115.982 36.1758ZM116.558 34.5059C118.033 34.5059 119.195 33.4902 119.195 32.1523V31.3418L116.656 31.498C115.396 31.5859 114.683 32.1426 114.683 33.0215C114.683 33.9199 115.435 34.5059 116.558 34.5059ZM123.701 33.5391V27.3965H122.959C122.412 27.3965 122.08 27.084 122.08 26.5664C122.08 26.0391 122.412 25.7266 122.959 25.7266H123.701V24.2031C123.701 23.5293 124.121 23.0801 124.765 23.0801C125.4 23.0801 125.82 23.5293 125.82 24.2031V25.7266H127.021C127.568 25.7266 127.9 26.0488 127.9 26.5664C127.9 27.084 127.568 27.3965 127.021 27.3965H125.82V33.0703C125.82 33.8906 126.103 34.2617 126.865 34.3203L127.031 34.3301C127.636 34.3887 127.939 34.6328 127.939 35.1309C127.939 35.7656 127.451 36.0879 126.416 36.0879H126.308C124.58 36.0879 123.701 35.2383 123.701 33.5391ZM130.374 24.1738C129.701 24.1738 129.154 23.627 129.154 22.9629C129.154 22.2891 129.701 21.7617 130.374 21.7617C131.058 21.7617 131.605 22.2891 131.605 22.9629C131.605 23.627 131.058 24.1738 130.374 24.1738ZM130.374 36.1855C129.74 36.1855 129.32 35.7461 129.32 35.0723V26.6641C129.32 25.9805 129.74 25.541 130.374 25.541C131.009 25.541 131.429 25.9805 131.429 26.6641V35.0723C131.429 35.7461 131.009 36.1855 130.374 36.1855ZM137.282 36.1855C136.53 36.1855 136.12 35.873 135.827 35.1113L132.78 27.0938C132.712 26.9082 132.663 26.7031 132.663 26.5078C132.663 25.9219 133.112 25.541 133.728 25.541C134.216 25.541 134.548 25.8047 134.724 26.3711L137.273 33.9395H137.312L139.86 26.3516C140.036 25.8047 140.368 25.541 140.847 25.541C141.452 25.541 141.882 25.9414 141.882 26.498C141.882 26.6836 141.843 26.8887 141.775 27.0645L138.728 35.1113C138.454 35.8535 138.005 36.1855 137.282 36.1855ZM144.171 24.1738C143.497 24.1738 142.95 23.627 142.95 22.9629C142.95 22.2891 143.497 21.7617 144.171 21.7617C144.854 21.7617 145.401 22.2891 145.401 22.9629C145.401 23.627 144.854 24.1738 144.171 24.1738ZM144.171 36.1855C143.536 36.1855 143.116 35.7461 143.116 35.0723V26.6641C143.116 25.9805 143.536 25.541 144.171 25.541C144.806 25.541 145.225 25.9805 145.225 26.6641V35.0723C145.225 35.7461 144.806 36.1855 144.171 36.1855ZM150.981 36.1758C148.383 36.1758 146.665 34.1055 146.665 30.8633C146.665 27.6211 148.383 25.5605 150.962 25.5605C152.436 25.5605 153.608 26.3027 154.184 27.4355H154.223V22.8359C154.223 22.1426 154.663 21.7227 155.288 21.7227C155.903 21.7227 156.342 22.1426 156.342 22.8359V35.1309C156.342 35.7949 155.913 36.1855 155.298 36.1855C154.702 36.1855 154.223 35.7949 154.223 35.1309V34.1738H154.194C153.667 35.375 152.583 36.1758 150.981 36.1758ZM151.538 34.3887C153.159 34.3887 154.243 33.0117 154.243 30.8633C154.243 28.7344 153.159 27.3379 151.538 27.3379C149.868 27.3379 148.823 28.7051 148.823 30.8633C148.823 33.0312 149.868 34.3887 151.538 34.3887ZM161.258 36.1758C159.246 36.1758 157.83 34.9258 157.83 33.0801C157.83 31.2832 159.217 30.1797 161.649 30.043L164.471 29.877V29.0859C164.471 27.9434 163.7 27.2598 162.411 27.2598C161.395 27.2598 160.721 27.6211 160.135 28.5586C159.92 28.8711 159.647 29.0078 159.276 29.0078C158.748 29.0078 158.368 28.6562 158.368 28.1289C158.368 27.9141 158.426 27.6797 158.553 27.4453C159.09 26.2832 160.643 25.541 162.489 25.541C164.979 25.541 166.571 26.8594 166.571 28.9199V35.1211C166.571 35.7852 166.151 36.1855 165.555 36.1855C164.969 36.1855 164.569 35.8047 164.549 35.1797V34.3105H164.5C163.905 35.4531 162.596 36.1758 161.258 36.1758ZM161.834 34.5059C163.309 34.5059 164.471 33.4902 164.471 32.1523V31.3418L161.932 31.498C160.672 31.5859 159.959 32.1426 159.959 33.0215C159.959 33.9199 160.711 34.5059 161.834 34.5059ZM172.219 36.1758C169.621 36.1758 167.902 34.1055 167.902 30.8633C167.902 27.6211 169.621 25.5605 172.199 25.5605C173.674 25.5605 174.846 26.3027 175.422 27.4355H175.461V22.8359C175.461 22.1426 175.901 21.7227 176.526 21.7227C177.141 21.7227 177.58 22.1426 177.58 22.8359V35.1309C177.58 35.7949 177.151 36.1855 176.535 36.1855C175.94 36.1855 175.461 35.7949 175.461 35.1309V34.1738H175.432C174.904 35.375 173.82 36.1758 172.219 36.1758ZM172.776 34.3887C174.397 34.3887 175.481 33.0117 175.481 30.8633C175.481 28.7344 174.397 27.3379 172.776 27.3379C171.106 27.3379 170.061 28.7051 170.061 30.8633C170.061 33.0312 171.106 34.3887 172.776 34.3887ZM183.941 36.1953C180.846 36.1953 179.029 34.2324 179.029 30.9121C179.029 27.6504 180.885 25.541 183.795 25.541C186.529 25.541 188.414 27.5137 188.414 30.3164C188.414 31 188.023 31.3906 187.369 31.3906H181.158V31.4395C181.158 33.3145 182.213 34.4863 183.893 34.4863C185.045 34.4863 185.768 34.0859 186.549 33.0215C186.773 32.7578 186.988 32.6504 187.291 32.6504C187.799 32.6504 188.17 32.9824 188.17 33.5098C188.17 33.6758 188.111 33.8711 188.023 34.0762C187.35 35.4238 185.855 36.1953 183.941 36.1953ZM181.168 29.916H186.305C186.256 28.3047 185.25 27.2402 183.785 27.2402C182.33 27.2402 181.275 28.3145 181.168 29.916Z" fill="black"/>
<rect width="228" height="48" rx="24" fill="#FD6D6F"/>
<path d="M33.8926 31C33.209 31 32.7988 30.5703 32.7988 29.8672V18.041C32.7988 17.3379 33.209 16.9082 33.8926 16.9082H37.7695C41.959 16.9082 44.4395 19.4863 44.4395 23.9297C44.4395 28.3828 41.9688 31 37.7695 31H33.8926ZM34.9863 29.1055H37.5645C40.5527 29.1055 42.2031 27.2793 42.2031 23.9492C42.2031 20.6289 40.543 18.793 37.5645 18.793H34.9863V29.1055ZM50.4685 31.1953C47.3728 31.1953 45.5564 29.2324 45.5564 25.9121C45.5564 22.6504 47.4119 20.541 50.322 20.541C53.0564 20.541 54.9412 22.5137 54.9412 25.3164C54.9412 26 54.5505 26.3906 53.8962 26.3906H47.6853V26.4395C47.6853 28.3145 48.74 29.4863 50.4197 29.4863C51.572 29.4863 52.2947 29.0859 53.0759 28.0215C53.3005 27.7578 53.5154 27.6504 53.8181 27.6504C54.3259 27.6504 54.697 27.9824 54.697 28.5098C54.697 28.6758 54.6384 28.8711 54.5505 29.0762C53.8767 30.4238 52.3826 31.1953 50.4685 31.1953ZM47.6951 24.916H52.8318C52.783 23.3047 51.7771 22.2402 50.3123 22.2402C48.8572 22.2402 47.8025 23.3145 47.6951 24.916ZM60.1109 31.1953C58.0894 31.1953 56.605 30.3652 56.1167 29.1055C56.0484 28.9492 56.0288 28.8027 56.0288 28.666C56.0288 28.1387 56.4097 27.8262 56.937 27.8262C57.2886 27.8262 57.5913 27.9922 57.855 28.3828C58.3823 29.2129 58.9976 29.584 60.2183 29.584C61.4195 29.584 62.23 29.0664 62.23 28.2168C62.23 27.543 61.8296 27.1816 60.7261 26.918L59.105 26.5371C57.1128 26.0684 56.1362 25.0918 56.1362 23.627C56.1362 21.7715 57.7476 20.541 60.189 20.541C62.0445 20.541 63.5679 21.4883 63.8609 22.6992C63.8804 22.8164 63.8999 22.9141 63.8999 23.0117C63.8999 23.4805 63.607 23.793 63.0796 23.793C62.7378 23.793 62.4351 23.6758 62.23 23.3438C61.771 22.5625 61.146 22.1523 60.1109 22.1523C58.978 22.1523 58.1968 22.709 58.1968 23.5098C58.1968 24.1543 58.6948 24.6035 59.7788 24.8574L61.3706 25.2285C63.5288 25.7266 64.3589 26.498 64.3589 28.0215C64.3589 29.9258 62.6499 31.1953 60.1109 31.1953ZM67.4095 31.1855C66.7649 31.1855 66.345 30.7852 66.345 30.082V22.3965H65.6126C65.1145 22.3965 64.7727 22.1035 64.7727 21.5762C64.7727 21.0684 65.1145 20.7461 65.6126 20.7461H66.345V19.7402C66.345 17.748 67.3118 16.8203 69.0794 16.8105C70.2024 16.8105 70.7395 17.1719 70.7395 17.7383C70.7395 18.0801 70.5735 18.2852 70.2317 18.3828C70.0852 18.4219 69.9095 18.4512 69.6946 18.4512C68.8059 18.4609 68.4348 18.8809 68.4348 19.8184V20.7461H69.8216C70.3196 20.7461 70.6614 21.0684 70.6614 21.5762C70.6614 22.1035 70.3196 22.3965 69.8216 22.3965H68.4641V30.082C68.4641 30.7852 68.0442 31.1855 67.4095 31.1855ZM74.3565 31.1758C72.3448 31.1758 70.9287 29.9258 70.9287 28.0801C70.9287 26.2832 72.3155 25.1797 74.7471 25.043L77.5694 24.877V24.0859C77.5694 22.9434 76.7979 22.2598 75.5088 22.2598C74.4932 22.2598 73.8194 22.6211 73.2334 23.5586C73.0186 23.8711 72.7452 24.0078 72.3741 24.0078C71.8467 24.0078 71.4659 23.6562 71.4659 23.1289C71.4659 22.9141 71.5245 22.6797 71.6514 22.4453C72.1885 21.2832 73.7412 20.541 75.587 20.541C78.0772 20.541 79.669 21.8594 79.669 23.9199V30.1211C79.669 30.7852 79.2491 31.1855 78.6534 31.1855C78.0674 31.1855 77.667 30.8047 77.6475 30.1797V29.3105H77.5987C77.003 30.4531 75.6944 31.1758 74.3565 31.1758ZM74.9327 29.5059C76.4073 29.5059 77.5694 28.4902 77.5694 27.1523V26.3418L75.0303 26.498C73.7705 26.5859 73.0577 27.1426 73.0577 28.0215C73.0577 28.9199 73.8096 29.5059 74.9327 29.5059ZM82.1824 31C81.5672 31 81.157 30.6289 81.157 30.0527C81.157 29.7305 81.2449 29.5254 81.4891 29.2227L86.6453 22.4453V22.4062H81.9871C81.4207 22.4062 81.0887 22.1035 81.0887 21.5664C81.0887 21.0391 81.4109 20.7266 81.9871 20.7266H87.9441C88.657 20.7266 89.0867 21.1074 89.0867 21.7422C89.0867 22.0742 88.9695 22.3281 88.6668 22.7383L83.7254 29.2812V29.3203H88.3543C88.9305 29.3203 89.2527 29.623 89.2527 30.1602C89.2527 30.6973 88.9207 31 88.3543 31H82.1824ZM94.8716 31.1953C91.7759 31.1953 89.9595 29.2324 89.9595 25.9121C89.9595 22.6504 91.815 20.541 94.7252 20.541C97.4595 20.541 99.3443 22.5137 99.3443 25.3164C99.3443 26 98.9537 26.3906 98.2994 26.3906H92.0884V26.4395C92.0884 28.3145 93.1431 29.4863 94.8228 29.4863C95.9752 29.4863 96.6978 29.0859 97.4791 28.0215C97.7037 27.7578 97.9185 27.6504 98.2212 27.6504C98.7291 27.6504 99.1002 27.9824 99.1002 28.5098C99.1002 28.6758 99.0416 28.8711 98.9537 29.0762C98.2798 30.4238 96.7857 31.1953 94.8716 31.1953ZM92.0982 24.916H97.2349C97.1861 23.3047 96.1802 22.2402 94.7154 22.2402C93.2603 22.2402 92.2056 23.3145 92.0982 24.916ZM101.78 31.1855C101.145 31.1855 100.725 30.7559 100.725 30.0723V21.6055C100.725 20.9609 101.135 20.541 101.731 20.541C102.317 20.541 102.727 20.9609 102.727 21.6055V22.4844H102.776C103.059 21.332 104.006 20.5605 105.032 20.5605C105.403 20.5605 105.686 20.6484 105.862 20.8145C106.057 20.9707 106.145 21.2246 106.145 21.5566C106.145 21.8887 106.037 22.1328 105.832 22.2988C105.618 22.4844 105.305 22.5723 104.866 22.5723C103.42 22.582 102.834 23.5488 102.834 24.8281V30.0723C102.834 30.7559 102.405 31.1855 101.78 31.1855ZM115.224 31.1953C112.285 31.1953 110.371 29.1543 110.371 25.8828C110.371 22.6309 112.275 20.541 115.205 20.541C117.187 20.541 118.887 21.5957 119.336 23.0312C119.394 23.1973 119.433 23.373 119.433 23.5195C119.433 24.0566 119.053 24.3887 118.535 24.3887C118.086 24.3887 117.832 24.2129 117.578 23.7441C117.051 22.7676 116.328 22.2988 115.244 22.2988C113.594 22.2988 112.519 23.6758 112.519 25.8633C112.519 28.0996 113.613 29.4277 115.244 29.4277C116.387 29.4277 117.08 28.9199 117.578 28.0312C117.871 27.5234 118.096 27.3477 118.555 27.3477C119.072 27.3477 119.453 27.6992 119.453 28.2266C119.453 28.3926 119.414 28.5684 119.336 28.7734C118.799 30.1895 117.129 31.1953 115.224 31.1953ZM125.316 31.1953C122.377 31.1953 120.443 29.1738 120.443 25.8633C120.443 22.5625 122.386 20.541 125.316 20.541C128.246 20.541 130.189 22.5625 130.189 25.8633C130.189 29.1738 128.255 31.1953 125.316 31.1953ZM125.316 29.457C126.976 29.457 128.041 28.1484 128.041 25.8633C128.041 23.5879 126.966 22.2793 125.316 22.2793C123.666 22.2793 122.591 23.5879 122.591 25.8633C122.591 28.1484 123.666 29.457 125.316 29.457ZM132.615 31.1855C131.99 31.1855 131.56 30.7656 131.56 30.0723V21.6055C131.56 20.9609 131.951 20.541 132.566 20.541C133.171 20.541 133.591 20.9609 133.591 21.6152V22.4258H133.64C134.197 21.2539 135.271 20.5508 136.853 20.5508C139.119 20.5508 140.417 21.9961 140.417 24.3496V30.0723C140.417 30.7656 139.978 31.1855 139.353 31.1855C138.738 31.1855 138.298 30.7656 138.298 30.0723V24.7598C138.298 23.2168 137.576 22.3672 136.111 22.3672C134.626 22.3672 133.669 23.4219 133.669 25.0137V30.0723C133.669 30.7656 133.23 31.1855 132.615 31.1855ZM146.593 31.1953C143.653 31.1953 141.739 29.1543 141.739 25.8828C141.739 22.6309 143.644 20.541 146.573 20.541C148.556 20.541 150.255 21.5957 150.704 23.0312C150.763 23.1973 150.802 23.373 150.802 23.5195C150.802 24.0566 150.421 24.3887 149.903 24.3887C149.454 24.3887 149.2 24.2129 148.946 23.7441C148.419 22.7676 147.696 22.2988 146.612 22.2988C144.962 22.2988 143.888 23.6758 143.888 25.8633C143.888 28.0996 144.982 29.4277 146.612 29.4277C147.755 29.4277 148.448 28.9199 148.946 28.0312C149.239 27.5234 149.464 27.3477 149.923 27.3477C150.441 27.3477 150.821 27.6992 150.821 28.2266C150.821 28.3926 150.782 28.5684 150.704 28.7734C150.167 30.1895 148.497 31.1953 146.593 31.1953ZM153.403 31.1855C152.788 31.1855 152.349 30.7656 152.349 30.0723V17.8359C152.349 17.1426 152.788 16.7227 153.403 16.7227C154.018 16.7227 154.458 17.1426 154.458 17.8359V30.0723C154.458 30.7656 154.018 31.1855 153.403 31.1855ZM159.921 31.1855C157.684 31.1855 156.317 29.7305 156.317 27.377V21.6641C156.317 20.9609 156.747 20.541 157.372 20.541C157.987 20.541 158.426 20.9609 158.426 21.6641V26.9668C158.426 28.5293 159.169 29.3691 160.624 29.3691C162.147 29.3691 163.065 28.3145 163.065 26.7129V21.6641C163.065 20.9609 163.505 20.541 164.12 20.541C164.745 20.541 165.174 20.9609 165.174 21.6641V30.1113C165.174 30.7656 164.774 31.1855 164.169 31.1855C163.563 31.1855 163.153 30.7656 163.153 30.1211V29.2617H163.104C162.538 30.4922 161.493 31.1855 159.921 31.1855ZM170.793 31.1953C168.772 31.1953 167.288 30.3652 166.799 29.1055C166.731 28.9492 166.711 28.8027 166.711 28.666C166.711 28.1387 167.092 27.8262 167.62 27.8262C167.971 27.8262 168.274 27.9922 168.538 28.3828C169.065 29.2129 169.68 29.584 170.901 29.584C172.102 29.584 172.913 29.0664 172.913 28.2168C172.913 27.543 172.512 27.1816 171.409 26.918L169.788 26.5371C167.795 26.0684 166.819 25.0918 166.819 23.627C166.819 21.7715 168.43 20.541 170.871 20.541C172.727 20.541 174.25 21.4883 174.543 22.6992C174.563 22.8164 174.582 22.9141 174.582 23.0117C174.582 23.4805 174.289 23.793 173.762 23.793C173.42 23.793 173.118 23.6758 172.913 23.3438C172.454 22.5625 171.829 22.1523 170.793 22.1523C169.661 22.1523 168.879 22.709 168.879 23.5098C168.879 24.1543 169.377 24.6035 170.461 24.8574L172.053 25.2285C174.211 25.7266 175.041 26.498 175.041 28.0215C175.041 29.9258 173.332 31.1953 170.793 31.1953ZM178.014 19.3594C177.623 19.3594 177.379 19.1055 177.379 18.6855C177.379 17.3867 178.219 16.5664 179.332 16.5664C180.69 16.5664 181.149 17.9922 181.871 17.9922C182.223 17.9922 182.418 17.7285 182.526 17.1035C182.604 16.6445 182.779 16.4297 183.17 16.4297C183.551 16.4297 183.805 16.6934 183.805 17.1035C183.805 18.3633 182.955 19.2324 181.891 19.2324C180.582 19.2324 180.084 17.8066 179.352 17.8066C178.942 17.8066 178.746 18.0605 178.658 18.7344C178.6 19.1445 178.395 19.3594 178.014 19.3594ZM179.42 31.1758C177.408 31.1758 175.992 29.9258 175.992 28.0801C175.992 26.2832 177.379 25.1797 179.811 25.043L182.633 24.877V24.0859C182.633 22.9434 181.861 22.2598 180.572 22.2598C179.557 22.2598 178.883 22.6211 178.297 23.5586C178.082 23.8711 177.809 24.0078 177.438 24.0078C176.91 24.0078 176.529 23.6562 176.529 23.1289C176.529 22.9141 176.588 22.6797 176.715 22.4453C177.252 21.2832 178.805 20.541 180.651 20.541C183.141 20.541 184.733 21.8594 184.733 23.9199V30.1211C184.733 30.7852 184.313 31.1855 183.717 31.1855C183.131 31.1855 182.731 30.8047 182.711 30.1797V29.3105H182.662C182.067 30.4531 180.758 31.1758 179.42 31.1758ZM179.996 29.5059C181.471 29.5059 182.633 28.4902 182.633 27.1523V26.3418L180.094 26.498C178.834 26.5859 178.121 27.1426 178.121 28.0215C178.121 28.9199 178.873 29.5059 179.996 29.5059ZM190.937 31.1953C187.998 31.1953 186.064 29.1738 186.064 25.8633C186.064 22.5625 188.008 20.541 190.937 20.541C193.867 20.541 195.81 22.5625 195.81 25.8633C195.81 29.1738 193.877 31.1953 190.937 31.1953ZM190.937 29.457C192.598 29.457 193.662 28.1484 193.662 25.8633C193.662 23.5879 192.588 22.2793 190.937 22.2793C189.287 22.2793 188.213 23.5879 188.213 25.8633C188.213 28.1484 189.287 29.457 190.937 29.457Z" fill="#361800"/>
</svg>
